<svg xmlns="http://www.w3.org/2000/svg" xmlns:xlink="http://www.w3.org/1999/xlink" width="200" height="200" class="icon" p-id="1196" t="1623150887115" version="1.1" viewBox="0 0 1024 1024"><defs><style type="text/css"/></defs><path fill="#E8AA3D" d="M85.746 128.008c0-35.376 28.624-64 63.998-64H683.06c23.56 0 42.686 19.062 42.686 42.624v85.374h-640V128.008z" p-id="1197"/><path fill="#F6BB42" d="M213.742 895.992V64.01h533.316c35.312 0 64 28.624 64 64v831.982H277.74l-63.998-64z" p-id="1198"/><path fill="#FFCE54" d="M896.368 917.302c0 23.562-19.062 42.688-42.624 42.688H277.74s21.312-19.124 21.312-42.688v-85.308h597.316v85.308z" p-id="1199"/><path fill="#F6BB42" d="M213.742 895.992v-63.998h127.998v63.998c0 35.342-28.686 63.998-63.998 63.998-35.376 0-64-28.656-64-63.998zM149.744 64.01h63.998v64c0-35.376-28.688-64-63.998-64z" p-id="1200"/><path fill="#FC6E51" d="M42.682 874.648c0 11.782-9.562 21.344-21.344 21.344-11.78 0-21.328-9.562-21.328-21.344s9.546-21.344 21.328-21.344 21.344 9.564 21.344 21.344z" p-id="1201"/><path fill="#ED5564" d="M170.68 618.652c0 11.782-9.562 21.344-21.342 21.344s-21.328-9.562-21.328-21.344 9.546-21.342 21.328-21.342 21.342 9.562 21.342 21.342z" p-id="1202"/><path fill="#4FC2E9" d="M1023.988 746.65c0 11.782-9.562 21.342-21.31 21.342-11.812 0-21.376-9.56-21.376-21.342s9.562-21.344 21.376-21.344c11.748 0 21.31 9.564 21.31 21.344z" p-id="1203"/><path fill="#FFCE54" d="M1023.988 149.32c0 11.782-9.562 21.342-21.31 21.342-11.812 0-21.376-9.562-21.376-21.342s9.562-21.312 21.376-21.312c11.748 0 21.31 9.532 21.31 21.312z" p-id="1204"/><path fill="#48CFAD" d="M917.304 405.314v-21.312c0-11.814-9.532-21.344-21.312-21.344s-21.312 9.53-21.312 21.344v21.312c-11.812 0-21.374 9.562-21.374 21.344s9.56 21.344 21.374 21.344v21.31c0 11.782 9.532 21.344 21.312 21.344s21.312-9.562 21.312-21.344v-21.31c11.812 0 21.376-9.562 21.376-21.344s-9.562-21.344-21.376-21.344z" p-id="1205"/><path fill="#AC92EB" d="M64.01 320.002V298.66c0-11.78-9.546-21.342-21.328-21.342s-21.344 9.562-21.344 21.342v21.342c-11.78 0-21.328 9.532-21.328 21.312s9.546 21.344 21.328 21.344v21.344c0 11.78 9.562 21.312 21.344 21.312s21.328-9.532 21.328-21.312V362.66c11.782 0 21.33-9.562 21.33-21.344s-9.548-21.314-21.33-21.314z" p-id="1206"/><path fill="#ED5564" d="M385.114 295.692c11.782-0.406 21-10.282 20.592-22.062-0.344-10.124 3.938-15.124 8.062-16.438 4.422-1.406 9.078 1.032 12.766 6.656 1.532 2.312 2.36 3.968 2.828 5-1 1.188-2.484 2.718-3.672 3.968-7.812 8.156-20.89 21.812-22.594 46.842-0.796 11.75 8.078 21.938 19.828 22.718 0.5 0.032 0.984 0.062 1.484 0.062 11.11 0 20.484-8.624 21.264-19.876 0.64-9.592 4.704-13.842 10.844-20.25 9.594-10.03 27.452-28.686 5.704-61.842-14.296-21.842-38.39-31.248-61.358-23.936-23.92 7.562-38.75 30.56-37.796 58.56 0.392 11.786 10.282 21.036 22.048 20.598zM637.186 466.22c-0.344-10.124 3.938-15.124 8.062-16.438 4.438-1.406 9.094 1.032 12.782 6.656 1.532 2.312 2.344 3.968 2.812 5-1 1.188-2.468 2.718-3.656 3.968-7.812 8.156-20.876 21.812-22.594 46.812-0.812 11.782 8.094 21.938 19.844 22.75 0.5 0.032 0.968 0.062 1.438 0.062 11.124 0 20.498-8.624 21.28-19.906 0.656-9.562 4.718-13.812 10.844-20.218 9.594-10.032 27.436-28.686 5.718-61.874-14.312-21.812-38.404-31.218-61.342-23.938-23.938 7.594-38.782 30.594-37.812 58.592 0.376 11.782 10.25 21.032 22.032 20.594 11.78-0.404 20.998-10.28 20.592-22.06zM507.798 293.036c2.64 2.656 3.218 4.592 2.36 7.968-0.89 3.562-3.124 6.876-3.906 7.844l0.078-0.094a21.352 21.352 0 0 0-4.782 13.468c0 11.782 9.546 21.312 21.328 21.312 6.422 0 12.172-2.844 16.078-7.344l0.032 0.032c13.326-15.718 24.044-48.186-0.938-73.28-3.11-3.124-2.968-4.812-2.438-6.812 0.766-3 2.782-5.812 3.5-6.656l-0.218 0.25-0.124-0.094a21.28 21.28 0 0 0 5.454-14.218c0-11.782-9.562-21.312-21.344-21.312a21.268 21.268 0 0 0-17.764 9.53c-12.614 15.874-21.254 45.374 2.684 69.406zM385.004 532.594l0.282-0.438a21.298 21.298 0 0 0 10.672 2.876c11.78 0 21.328-9.562 21.328-21.344 0-8.156-4.578-15.218-11.296-18.812-0.454-0.532-0.782-1-0.844-1.282 0-0.032 0.282-2.906 5.89-8.532 17.546-17.532 19.468-33.592 17.984-43.936-2.968-20.938-20.968-31.376-23.016-32.5-10.328-5.688-23.296-1.906-28.968 8.406-5.672 10.344-1.906 23.312 8.422 28.968 0 0.032 0.718 0.656 1.156 1.188-0.39 1.03-1.672 3.656-5.75 7.718-17.188 17.186-19.328 33.218-18.094 43.656 2.516 21.376 20.218 32.814 22.234 34.032zM597.248 342.002h10.688c5.688 0 11.188-2.312 15.188-6.376s6.218-9.562 6.124-15.25c0-0.156-0.156-14.906 2.124-31.498 2.438-17.5 6.188-26.624 8.624-30.532 2.406 3.876 6.124 12.844 8.5 30.062 2.312 16.592 2.188 31.81 2.188 31.936-0.094 5.718 2.124 11.218 6.124 15.282s9.498 6.376 15.186 6.376h10.688c11.75 0 21.31-9.562 21.31-21.344 0-8.156-4.56-15.218-11.28-18.812a248.742 248.742 0 0 0-1.532-16.186c-3.562-28.218-10.876-47.592-22.376-59.25-7.998-8.124-17.936-12.406-28.81-12.406s-20.812 4.282-28.812 12.374c-17.438 17.686-22.594 52.842-24.062 75.498a21.322 21.322 0 0 0-11.188 18.78c0.004 11.784 9.566 21.346 21.316 21.346zM576.03 597.998h-10.656a21.3 21.3 0 0 0-15.188 6.342 21.364 21.364 0 0 0-6.154 15.25c0 0.156 0.156 14.906-2.11 31.5-2.406 17.5-6.172 26.624-8.61 30.532-2.422-3.876-6.124-12.844-8.532-30.062-2.312-16.594-2.156-31.812-2.156-31.938a21.24 21.24 0 0 0-6.14-15.282 21.296 21.296 0 0 0-15.186-6.342h-10.656c-11.782 0-21.342 9.53-21.342 21.31 0 8.156 4.562 15.218 11.28 18.812 0.328 4.906 0.812 10.406 1.532 16.188 3.546 28.218 10.86 47.592 22.36 59.248 8 8.124 17.968 12.438 28.828 12.438s20.826-4.312 28.826-12.406c17.438-17.688 22.562-52.842 24.062-75.498 6.624-3.594 11.188-10.656 11.188-18.782-0.002-11.78-9.566-21.31-21.346-21.31zM682.684 640.652v-21.344c0-11.782-9.562-21.31-21.374-21.31-11.75 0-21.312 9.53-21.312 21.31v21.344c-11.782 0-21.312 9.532-21.312 21.344a21.3 21.3 0 0 0 21.312 21.312v21.342c0 11.782 9.562 21.344 21.312 21.344 11.81 0 21.374-9.562 21.374-21.344v-21.342c11.75 0 21.31-9.532 21.31-21.312 0-11.812-9.56-21.344-21.31-21.344zM433.252 642.028a21.42 21.42 0 0 0-7.532-1.376h-20.39v-21.344c0-11.782-9.546-21.31-21.328-21.31s-21.328 9.53-21.328 21.31v85.342c0 11.782 9.546 21.344 21.328 21.344s21.328-9.562 21.328-21.344v-21.342h14c0.11 0.124 0.188 0.25 0.234 0.312 2.516 3.312 2.984 9.312 1.312 16.874-2.532 11.5 4.734 22.876 16.234 25.438 1.562 0.344 3.094 0.5 4.624 0.5 9.782 0 18.61-6.782 20.812-16.75 9.128-41.342-15.17-62.342-29.294-67.654zM455.876 480.062c-0.062 0.25-0.14 0.5-0.204 0.782l-6.624 25.844c-2.922 11.406 3.954 23.032 15.376 25.968 1.766 0.438 3.546 0.656 5.312 0.656 9.5 0 18.17-6.406 20.64-16.032l2.312-8.968 60.872 4.282a21.274 21.274 0 0 0 16.032-5.656 21.328 21.328 0 0 0 6.782-15.624c0-25.874-7.938-46.686-23.688-61.936-24.592-23.844-58.168-23.5-61.934-23.376a21.286 21.286 0 0 0-19.984 16.032l-14.892 58.028z m51.468-28.904c5.342 1.656 11.17 4.438 15.858 9.062a31.32 31.32 0 0 1 5.782 7.874l-25.53-1.812 3.89-15.124z" p-id="1207"/></svg>